# xmcd
#
# Track frame offsets: 
#        150
#        22370
#        43649
#        64364
#        88487
#        109149
#        132011
#        147620
#        169295
#        194456
#        211710
#        234322
#        263077
#        286367
#        307820
#        329651
#
# Disc length: 4659 seconds
#
# Revision: 0
# Processed by: cddbd v1.5.2PL0 Copyright (c) Steve Scherf et al.
# Submitted via: ExactAudioCopy v0.99pb5
#
DISCID=fa123110
DTITLE=Santana - Magic Instrumentals
DYEAR=2000
DGENRE=Rock
TTITLE0=Incident At Neshabur
TTITLE1=Treat
TTITLE2=Samba Pa Ti
TTITLE3=Jungle Strut
TTITLE4=La Fuende Del Ritmo
TTITLE5=Europa (Earth's Cry Heaven's Smile)
TTITLE6=Wham!
TTITLE7=Flor D'Luna (Moonflower)
TTITLE8=Aqua Marine
TTITLE9=Life Is A Lady/Holiday
TTITLE10=Nueva York
TTITLE11=Oneness
TTITLE12=Luz Amor Y Vida
TTITLE13=I Love You Much Too Much
TTITLE14=El Farol
TTITLE15=Maria Maria (Wyclef Jean Remix)
EXTD=
EXTT0=
EXTT1=
EXTT2=
EXTT3=
EXTT4=
EXTT5=
EXTT6=
EXTT7=
EXTT8=
EXTT9=
EXTT10=
EXTT11=
EXTT12=
EXTT13=
EXTT14=
EXTT15=
PLAYORDER=
